<?xml version="1.0" encoding="utf-8"?>
<!-- Generator: Adobe Illustrator 16.0.4, SVG Export Plug-In . SVG Version: 6.00 Build 0)  -->
<!DOCTYPE svg PUBLIC "-//W3C//DTD SVG 1.1//EN" "http://www.w3.org/Graphics/SVG/1.1/DTD/svg11.dtd">
<svg version="1.1" id="Layer_1" xmlns="http://www.w3.org/2000/svg" xmlns:xlink="http://www.w3.org/1999/xlink" x="0px" y="0px"
	 width="215.333px" height="215.333px" viewBox="0 0 215.333 215.333" enable-background="new 0 0 215.333 215.333"
	 xml:space="preserve">
<g>
	<circle fill="#010101" cx="107.667" cy="107.667" r="107.666"/>
	<path fill="#6DC9F2" d="M182.91,161.684c0.028,6.627-7.322,12.031-13.949,12.059l-121.499,0.512
		c-6.627,0.027-14.022-5.314-14.05-11.941l-0.385-91.499c-0.028-6.627,62.879-48.515,74.546-48.563
		c11.667-0.05,74.924,41.308,74.952,47.935L182.91,161.684z"/>
	<polygon fill="#FFFFFF" points="123.421,128.434 95.087,128.553 46.264,91.424 46.17,69.092 168.335,68.578 168.427,90.245 	"/>
	<path fill="#6DC9F2" d="M186.069,44.67"/>
	<polygon fill="#010101" points="146.903,94.668 68.029,94.668 67.993,86.001 146.867,86.001 	"/>
	<polygon fill="#010101" points="146.978,112.293 68.104,112.293 68.067,103.958 146.941,103.958 	"/>
	<polygon fill="#010101" points="192.332,75.09 186.832,68.393 120.797,122.612 93.532,122.726 27.043,69.065 21.6,75.809 
		89.938,130.963 49.751,176.221 55.415,181.25 99.709,131.368 114.692,131.304 159.405,180.813 165.027,175.737 124.46,130.818 	"/>
</g>
</svg>
